<svg width="61" height="47" viewBox="0 0 61 47" fill="none" xmlns="http://www.w3.org/2000/svg">
<g clip-path="url(#clip0_55_166)">
<path d="M39.0203 3C38.4558 4.00405 37.9488 5.04273 37.488 6.10447C33.1096 5.44665 28.6506 5.44665 24.2607 6.10447C23.8115 5.04273 23.293 4.00405 22.7283 3C18.615 3.704 14.6053 4.93886 10.8031 6.68151C3.26776 17.8645 1.2284 28.7591 2.24233 39.5036C6.65529 42.7697 11.5982 45.2626 16.8637 46.8551C18.0504 45.2626 19.099 43.566 19.9977 41.8002C18.2924 41.1656 16.6447 40.3692 15.0663 39.446C15.4811 39.1458 15.8843 38.8342 16.2761 38.5342C25.5282 42.8966 36.2436 42.8966 45.5071 38.5342C45.8989 38.8574 46.3022 39.169 46.717 39.446C45.1385 40.3807 43.4908 41.1656 41.7741 41.8118C42.6728 43.5776 43.7212 45.274 44.9081 46.8667C50.1736 45.274 55.1165 42.7927 59.5295 39.5267C60.7277 27.0626 57.4785 16.2604 50.9455 6.6931C47.1549 4.95041 43.1452 3.71553 39.0319 3.02308L39.0203 3ZM21.2881 32.8907C18.4422 32.8907 16.0801 30.3056 16.0801 27.1088C16.0801 23.912 18.3499 21.3153 21.2765 21.3153C24.2031 21.3153 26.5305 23.9235 26.4845 27.1088C26.4384 30.294 24.1917 32.8907 21.2881 32.8907ZM40.4837 32.8907C37.6262 32.8907 35.2873 30.3056 35.2873 27.1088C35.2873 23.912 37.5571 21.3153 40.4837 21.3153C43.4101 21.3153 45.7261 23.9235 45.68 27.1088C45.634 30.294 43.3871 32.8907 40.4837 32.8907ZM115.402 11.0093C112.533 9.71677 109.031 9.07052 104.883 9.07052H87.6922V39.9884H103.65C108.144 39.9884 111.911 39.2959 114.953 37.911C117.73 36.757 120.092 34.795 121.751 32.2791C123.237 29.9017 124.009 27.1434 123.975 24.3389C124.021 21.546 123.284 18.7994 121.832 16.4105C120.288 13.9985 118.041 12.1058 115.402 10.9978V11.0093ZM109.918 30.0286C108.42 31.425 106.277 32.129 103.477 32.129H98.7187V16.9413H104.1C106.796 16.9413 108.823 17.6222 110.172 18.9494C111.543 20.3804 112.269 22.3193 112.176 24.3159C112.28 26.4626 111.462 28.5398 109.93 30.0402L109.918 30.0286ZM168.416 26.6125C169.82 27.8705 170.524 29.717 170.535 32.1521C170.58 34.7488 169.245 37.1839 167.02 38.5342C164.706 40.0922 161.386 40.877 157.077 40.8654C154.6 40.8654 152.135 40.5538 149.739 39.9422C147.468 39.3767 145.301 38.4649 143.298 37.2531V29.9247C145.048 31.1942 147.008 32.129 149.093 32.683C151.375 33.3755 153.747 33.7447 156.133 33.7563C156.951 33.8024 157.78 33.6525 158.541 33.3409C159.083 33.0639 159.347 32.706 159.347 32.3484C159.359 31.9329 159.197 31.5404 158.909 31.2404C158.402 30.8596 157.814 30.5942 157.193 30.4903L151.903 29.3015C148.874 28.5976 146.72 27.6166 145.451 26.3701C144.161 25.066 143.47 23.2772 143.562 21.4422C143.539 19.8034 144.138 18.2108 145.232 16.9875C146.535 15.6026 148.182 14.5985 149.992 14.0561C152.33 13.3174 154.773 12.9712 157.228 13.0174C159.521 12.9944 161.801 13.2598 164.014 13.8138C165.811 14.2408 167.527 14.9217 169.129 15.8449V22.781C167.632 21.9155 166.018 21.246 164.347 20.819C162.527 20.3344 160.65 20.0804 158.771 20.0804C156.006 20.0804 154.623 20.5536 154.623 21.4884C154.623 21.9155 154.866 22.3078 155.257 22.4809C156.017 22.8041 156.801 23.0348 157.608 23.1617L162.02 23.9581C164.878 24.466 167.02 25.343 168.427 26.6125H168.416ZM197.68 31.7136C198.97 31.3443 200.204 30.8133 201.356 30.1441V37.9686C197.946 39.9538 194.051 40.9693 190.111 40.8886C186.953 40.9693 183.808 40.3346 180.939 39.0189C178.578 37.934 176.596 36.1798 175.224 33.9755C173.946 31.8058 173.289 29.3361 173.335 26.8202C173.3 24.3043 173.992 21.8346 175.316 19.7112C176.733 17.5415 178.762 15.8333 181.135 14.7946C184.027 13.5368 187.149 12.9251 190.307 13.0058C194.719 13.0058 198.371 13.9292 201.287 15.7873V23.8774C200.181 23.1271 198.972 22.5501 197.692 22.1578C196.263 21.7077 194.777 21.4884 193.279 21.5C190.549 21.5 188.405 21.9961 186.861 23.0002C184.695 24.212 183.913 26.9587 185.122 29.14C185.513 29.8439 186.101 30.4325 186.792 30.848C188.291 31.8636 190.468 32.3714 193.315 32.3714C194.788 32.3714 196.252 32.1637 197.658 31.7366L197.68 31.7136ZM230.323 14.7832C224.526 12.4288 218.04 12.4288 212.245 14.7832C209.883 15.8219 207.878 17.5183 206.448 19.6649C205.1 21.7884 204.398 24.2467 204.445 26.7626C204.409 29.3015 205.113 31.8058 206.448 33.9641C207.865 36.1684 209.894 37.9226 212.279 39.0073C218.04 41.4656 224.55 41.4656 230.31 38.9959C232.685 37.911 234.701 36.1568 236.107 33.9525C237.432 31.7828 238.123 29.2899 238.089 26.751C238.134 24.2351 237.443 21.7654 236.107 19.6419C234.69 17.5069 232.685 15.8103 230.334 14.7832H230.323ZM225.668 31.1712C224.481 32.2906 222.89 32.8792 221.254 32.7753C219.631 32.8561 218.04 32.2791 216.842 31.1712C215.747 30.0286 215.159 28.4937 215.24 26.9011C215.159 25.3314 215.747 23.8082 216.842 22.6886C218.04 21.5923 219.631 21.0383 221.254 21.1191C222.879 21.0267 224.47 21.5923 225.668 22.6886C226.774 23.8082 227.362 25.3314 227.281 26.9011C227.349 28.4821 226.774 30.0286 225.668 31.1712ZM260.568 13.5598C261.972 13.5252 263.368 13.883 264.577 14.6215V24.1774C263.263 23.3927 261.742 23.0118 260.21 23.0695C257.86 23.0695 256.051 23.785 254.784 25.2161C253.528 26.6471 252.894 28.863 252.894 31.8636V39.9884H242.086V14.1484H252.663V22.354C253.251 19.3533 254.196 17.1374 255.509 15.7065C256.8 14.2869 258.631 13.5021 260.544 13.5598H260.568ZM289.671 8.18191V19.6996C287.908 15.2217 284.452 12.9828 279.314 12.9828C276.963 12.9482 274.648 13.5714 272.63 14.7946C270.672 16.0181 269.094 17.7607 268.091 19.8381C266.996 22.1116 266.455 24.6045 266.536 27.1202C266.489 29.5555 266.996 31.9559 268.01 34.1718C268.933 36.1684 270.408 37.8763 272.25 39.0766C274.163 40.2884 276.387 40.9116 278.646 40.8654C281.053 40.9346 283.427 40.346 285.512 39.1458C287.402 37.9802 288.866 36.2376 289.684 34.1718V39.9768H300.492V8.18191H289.684H289.671ZM288.082 31.0211C286.884 32.129 285.293 32.6946 283.67 32.6022C282.079 32.683 280.523 32.106 279.348 31.0211C278.242 29.9478 277.643 28.4475 277.701 26.9011C277.643 25.366 278.231 23.8888 279.337 22.8157C281.883 20.7383 285.536 20.7383 288.082 22.8157C289.188 23.8542 289.787 25.32 289.741 26.8434C289.799 28.4013 289.199 29.9247 288.082 31.0211ZM138.469 12.0596C138.469 14.737 136.061 16.9067 133.089 16.9067C130.116 16.9067 127.708 14.737 127.708 12.0596C127.708 9.38213 130.116 7.21245 133.089 7.21245C136.061 7.21245 138.469 9.38213 138.469 12.0596ZM138.469 20.242V40.1269H127.696V20.242C131.141 21.6961 135.024 21.6961 138.469 20.242Z" fill="white"/>
</g>
<defs>
<clipPath id="clip0_55_166">
<rect width="61" height="47" fill="white"/>
</clipPath>
</defs>
</svg>
