<svg width="190" height="58" viewBox="0 0 190 58" fill="none" xmlns="http://www.w3.org/2000/svg">
<path d="M28.456 0C13.456 0 1.1677 11.566 0 26.2645L15.3047 32.5923C16.6015 31.7054 18.1681 31.1858 19.8535 31.1858C20.0045 31.1858 20.1549 31.191 20.3041 31.1994L27.1102 21.3343C27.1102 21.2871 27.1095 21.2413 27.1095 21.1948C27.1095 15.2569 31.9397 10.426 37.8783 10.426C43.8162 10.426 48.6465 15.2569 48.6465 21.1948C48.6465 27.1327 43.8162 31.9643 37.8783 31.9643C37.7963 31.9643 37.715 31.9623 37.6337 31.9604L27.9267 38.8866C27.9319 39.0124 27.9364 39.1409 27.9364 39.2687C27.9364 43.7265 24.3106 47.3516 19.8535 47.3516C15.9411 47.3516 12.6698 44.5592 11.9288 40.8611L0.983735 36.3362C4.37258 48.3218 15.3841 57.1089 28.456 57.1089C44.2267 57.1089 57.0108 44.3242 57.0108 28.5554C57.0108 12.784 44.2261 0 28.456 0Z" fill="white"/>
<path d="M17.8939 43.3266L14.3862 41.8775C15.0078 43.1717 16.0832 44.2555 17.5111 44.8506C20.5978 46.1365 24.1564 44.6718 25.4429 41.5825C26.0658 40.0888 26.0697 38.4396 25.452 36.942C24.8355 35.4438 23.6723 34.2755 22.1767 33.6519C20.6927 33.0342 19.1029 33.0568 17.706 33.5842L21.3292 35.0824C23.6058 36.0312 24.6825 38.6455 23.7336 40.9222C22.7867 43.1995 20.1705 44.2762 17.8939 43.3266Z" fill="white"/>
<path d="M45.0528 21.1949C45.0528 17.2386 41.8344 14.0195 37.8775 14.0195C33.9212 14.0195 30.7021 17.2386 30.7021 21.1949C30.7021 25.1517 33.9212 28.3695 37.8775 28.3695C41.8344 28.3689 45.0528 25.1511 45.0528 21.1949ZM32.4992 21.1826C32.4992 18.2056 34.9127 15.7927 37.8897 15.7927C40.8668 15.7927 43.2803 18.2056 43.2803 21.1826C43.2803 24.1596 40.8668 26.5725 37.8897 26.5725C34.9127 26.5725 32.4992 24.159 32.4992 21.1826Z" fill="white"/>
<path d="M87.5058 19.5371L85.5925 22.9001C84.1189 21.8705 82.1217 21.2509 80.3782 21.2509C78.3856 21.2509 77.1527 22.0758 77.1527 23.5533C77.1527 25.3485 79.3429 25.7661 82.5981 26.9344C86.0973 28.1719 88.1087 29.6262 88.1087 32.831C88.1087 37.2159 84.6604 39.6785 79.7043 39.6785C77.2889 39.6785 74.3751 39.0549 72.1353 37.6923L73.5308 33.9639C75.3505 34.925 77.5271 35.495 79.4674 35.495C82.083 35.495 83.3262 34.53 83.3262 33.1034C83.3262 31.471 81.4304 30.9804 78.3701 29.967C74.8825 28.8025 72.4657 27.2746 72.4657 23.7276C72.4657 19.7275 75.6693 17.4302 80.2788 17.4302C83.4915 17.4302 86.0734 18.4481 87.5058 19.5371Z" fill="white"/>
<path d="M102.462 21.6628V39.31H97.9568V21.6628H91.418V17.7988H108.981V21.6628H102.462Z" fill="white"/>
<path d="M118.478 21.6511V26.4982H127.099V30.3621H118.478V35.4105H128.48V39.31H113.974V17.7988H128.48V21.6511H118.478Z" fill="white"/>
<path d="M138.536 35.1334L137.112 39.3104H132.389L140.455 17.7993H144.989L153.283 39.3098H148.401L146.946 35.1328L138.536 35.1334ZM142.696 22.9304L139.759 31.5432H145.695L142.696 22.9304Z" fill="white"/>
<path d="M176.402 26.1135L170.515 38.6832H167.973L162.182 26.2258V39.31H157.868V17.7988H162.172L169.402 33.3269L176.375 17.7988H180.716V39.31H176.403L176.402 26.1135Z" fill="white"/>
<path d="M189.425 20.5123C189.425 22.361 188.04 23.5132 186.45 23.5132C184.854 23.5132 183.466 22.361 183.466 20.5123C183.466 18.6642 184.854 17.5198 186.45 17.5198C188.04 17.5198 189.425 18.6642 189.425 20.5123ZM183.966 20.5123C183.966 22.0589 185.08 23.0304 186.45 23.0304C187.815 23.0304 188.924 22.0589 188.924 20.5123C188.924 18.9612 187.815 18.0045 186.45 18.0045C185.084 18.0045 183.966 18.9728 183.966 20.5123ZM186.491 18.9831C187.263 18.9831 187.522 19.3911 187.522 19.8319C187.522 20.236 187.283 20.5071 186.991 20.6453L187.682 21.9408H187.116L186.533 20.7924H185.932V21.9408H185.461V18.9831H186.491ZM185.937 20.3593H186.462C186.802 20.3593 187.003 20.1456 187.003 19.8771C187.003 19.606 186.859 19.4317 186.461 19.4317H185.936V20.3593H185.937Z" fill="white"/>
</svg>
